<svg xmlns="http://www.w3.org/2000/svg" viewBox="0 0 1024 1024">
  <defs>
    <linearGradient id="sky3" x1="0" y1="0" x2="0" y2="1">
      <stop offset="0" stop-color="#453070"/>
      <stop offset="0.42" stop-color="#8E4E82"/>
      <stop offset="0.74" stop-color="#DE6F60"/>
      <stop offset="1" stop-color="#FFAD5F"/>
    </linearGradient>
    <clipPath id="sq3">
      <rect width="1024" height="1024" rx="230"/>
    </clipPath>
  </defs>
  <g clip-path="url(#sq3)">
    <rect width="1024" height="1024" fill="url(#sky3)"/>
    <circle cx="150" cy="240" r="14" fill="#FFE8C2" opacity="0.7"/>
    <rect x="640" y="700" width="180" height="26" rx="13" fill="#FFDFAC" opacity="0.4"/>
    <rect x="730" y="752" width="110" height="22" rx="11" fill="#FFDFAC" opacity="0.3"/>
    <circle cx="348" cy="812" r="135" fill="#FFC66B"/>
    <g transform="translate(25 -20)">
      <g stroke="#3A2A5E" stroke-width="4" opacity="0.55" fill="none">
        <path d="M 103 927 Q 143 1014 213 1080"/>
        <path d="M 185 856 Q 241 978 328 1080"/>
        <path d="M 267 784 Q 335 941 435 1080"/>
        <path d="M 348 713 Q 424 905 533 1080"/>
        <path d="M 429 641 Q 510 868 624 1080"/>
        <path d="M 510 569 Q 593 831 709 1080"/>
        <path d="M 591 496 Q 823 734 1080 946"/>
        <path d="M 671 424 Q 863 649 1080 849"/>
        <path d="M 751 352 Q 902 557 1080 738"/>
        <path d="M 832 279 Q 942 455 1080 609"/>
        <path d="M 911 206 Q 981 343 1080 461"/>
      </g>
      <path d="M 60 935
               A 1415 1415 0 0 1 1005 90
               A 40198 40198 0 0 1 60 935
               Z"
            fill="#FFEFD3" stroke="#FFEFD3" stroke-width="60"
            stroke-linecap="round" stroke-linejoin="round"/>
      <g stroke="#F0D8AC" stroke-width="5" stroke-linecap="round" opacity="0.8">
        <line x1="62" y1="880" x2="103" y2="927"/>
        <line x1="113" y1="776" x2="185" y2="856"/>
        <line x1="171" y1="677" x2="267" y2="784"/>
        <line x1="234" y1="586" x2="348" y2="713"/>
        <line x1="304" y1="500" x2="429" y2="641"/>
        <line x1="378" y1="422" x2="510" y2="569"/>
        <line x1="459" y1="349" x2="591" y2="496"/>
        <line x1="546" y1="284" x2="671" y2="424"/>
        <line x1="637" y1="225" x2="751" y2="352"/>
        <line x1="736" y1="172" x2="832" y2="279"/>
        <line x1="840" y1="126" x2="911" y2="206"/>
        <line x1="951" y1="86" x2="992" y2="132"/>
      </g>
    </g>
  </g>
</svg>
