<svg xmlns="http://www.w3.org/2000/svg" viewBox="0 0 1024 1024">
  <defs>
    <linearGradient id="sky" x1="0" y1="0" x2="0" y2="1">
      <stop offset="0" stop-color="#453070"/>
      <stop offset="0.42" stop-color="#8E4E82"/>
      <stop offset="0.74" stop-color="#DE6F60"/>
      <stop offset="1" stop-color="#FFAD5F"/>
    </linearGradient>
    <clipPath id="sq">
      <rect width="1024" height="1024" rx="230"/>
    </clipPath>
  </defs>
  <g clip-path="url(#sq)">
    <rect width="1024" height="1024" fill="url(#sky)"/>
    <circle cx="512" cy="585" r="155" fill="#FFC66B"/>
    <rect x="640" y="270" width="190" height="26" rx="13" fill="#FFDFAC" opacity="0.45"/>
    <rect x="710" y="318" width="110" height="22" rx="11" fill="#FFDFAC" opacity="0.35"/>
    <rect x="150" y="200" width="130" height="24" rx="12" fill="#FFDFAC" opacity="0.35"/>
    <g transform="translate(530 550) scale(0.38) rotate(-14) translate(-512 -512)" fill="none" stroke="#2C1E50">
      <line x1="512" y1="690" x2="276" y2="530" stroke-width="26"/>
      <line x1="512" y1="690" x2="748" y2="530" stroke-width="26"/>
      <path d="M 264 520 A 250 250 0 0 1 760 520" stroke-width="74" stroke-linecap="round"/>
      <circle cx="512" cy="690" r="56" fill="#2C1E50" stroke="none"/>
    </g>
    <path d="M -20 790 C 140 700, 300 710, 470 770 C 640 828, 800 812, 1044 730 L 1044 1044 L -20 1044 Z"
          fill="#5E3B72"/>
    <path d="M -20 900 C 180 818, 400 852, 610 912 C 780 960, 920 944, 1044 902 L 1044 1044 L -20 1044 Z"
          fill="#2C1E50"/>
  </g>
</svg>
