<svg xmlns="http://www.w3.org/2000/svg" viewBox="0 0 1024 1024">
  <defs>
    <linearGradient id="sky" x1="0" y1="0" x2="0" y2="1">
      <stop offset="0" stop-color="#453070"/>
      <stop offset="0.42" stop-color="#8E4E82"/>
      <stop offset="0.74" stop-color="#DE6F60"/>
      <stop offset="1" stop-color="#FFAD5F"/>
    </linearGradient>
    <clipPath id="sq2">
      <rect width="1024" height="1024" rx="230"/>
    </clipPath>
  </defs>
  <g clip-path="url(#sq2)">
    <rect width="1024" height="1024" fill="url(#sky)"/>
    <rect x="655" y="230" width="185" height="26" rx="13" fill="#FFDFAC" opacity="0.4"/>
    <rect x="160" y="330" width="115" height="22" rx="11" fill="#FFDFAC" opacity="0.35"/>
    <circle cx="512" cy="660" r="190" fill="#FFC66B"/>
    <g transform="rotate(-18 512 512) translate(0 -50)">
      <g stroke="#2A1E52" stroke-width="11">
        <line x1="512" y1="800" x2="238" y2="507"/>
        <line x1="512" y1="800" x2="786" y2="507"/>
        <line x1="512" y1="800" x2="454" y2="424"/>
        <line x1="512" y1="800" x2="570" y2="424"/>
      </g>
      <circle cx="566" cy="805" r="50" fill="none" stroke="#2A1E52" stroke-width="12"/>
      <ellipse cx="512" cy="805" rx="46" ry="30" fill="#2A1E52"/>
      <circle cx="455" cy="795" r="24" fill="#2A1E52"/>
      <path d="M 152 585
               A 368 368 0 0 1 872 585
               A 68 68 0 0 1 786 507
               A 68 68 0 0 1 683 452
               A 68 68 0 0 1 570 424
               A 68 68 0 0 1 454 424
               A 68 68 0 0 1 341 452
               A 68 68 0 0 1 238 507
               A 68 68 0 0 1 152 585
               Z"
            fill="#FFEFD3"/>
      <g stroke="#EDCFA0" stroke-width="9" stroke-linecap="round">
        <line x1="786" y1="507" x2="818" y2="462"/>
        <line x1="683" y1="452" x2="703" y2="401"/>
        <line x1="570" y1="424" x2="577" y2="369"/>
        <line x1="454" y1="424" x2="447" y2="369"/>
        <line x1="341" y1="452" x2="321" y2="401"/>
        <line x1="238" y1="507" x2="206" y2="462"/>
      </g>
    </g>
  </g>
</svg>
